<svg width="400" height="400" viewBox="0 0 400 400" fill="none" xmlns="http://www.w3.org/2000/svg">
<path fill-rule="evenodd" clip-rule="evenodd" d="M20 0C8.95431 0 0 8.95431 0 20V380C0 391.046 8.95431 400 20 400H105H270H380C391.046 400 400 391.046 400 380V270V20C400 8.95431 391.046 0 380 0H20ZM140 270V155C140 135.67 124.33 120 105 120C85.67 120 70 135.67 70 155V365C70 384.33 85.67 400 105 400C124.33 400 140 384.33 140 365V270ZM140 270C140 198.203 198.203 140 270 140C341.797 140 400 198.203 400 270C400 341.797 341.797 400 270 400C198.203 400 140 341.797 140 270ZM105 117C124.33 117 140 101.33 140 82C140 62.67 124.33 47 105 47C85.67 47 70 62.67 70 82C70 101.33 85.67 117 105 117Z" fill="white"/>
</svg>
